<?xml version="1.0" encoding="UTF-8" standalone="no"?> <!-- Created with Vectornator for iOS (http://vectornator.io/) --><!DOCTYPE svg PUBLIC "-//W3C//DTD SVG 1.1//EN" "http://www.w3.org/Graphics/SVG/1.1/DTD/svg11.dtd">
<svg width="100%" viewBox="0 0 21 19" height="100%" xml:space="preserve" xmlns="http://www.w3.org/2000/svg" style="fill-rule:nonzero;clip-rule:evenodd;stroke-linecap:round;stroke-linejoin:round;" xmlns:vectornator="http://vectornator.io" xmlns:xlink="http://www.w3.org/1999/xlink" version="1.1">
<metadata>
<vectornator:setting key="VNSnapToGuides" value="true"/>
<vectornator:setting key="VNPencilOnly" value="false"/>
<vectornator:setting value="false" key="WDSnapToEdges"/>
<vectornator:setting key="WDIsolateActiveLayer" value="false"/>
<vectornator:setting value="false" key="WDSnapToGrid"/>
<vectornator:setting value="false" key="WDSnapToPoints"/>
<vectornator:setting value="Points" key="WDUnits"/>
<vectornator:setting value="false" key="WDDynamicGuides"/>
<vectornator:setting value="false" key="WDCMYKEnabledKey"/>
<vectornator:setting key="WDOutlineMode" value="false"/>
<vectornator:setting key="UndoHistoryDisabled" value="false"/>
<vectornator:setting value="true" key="WDRulersVisible"/>
<vectornator:setting value="true" key="VNDimensionsVisible"/>
<vectornator:setting value="true" key="WDGuidesVisible"/>
<vectornator:setting key="IsTimeLapseWatermarkDisabled" value="false"/>
<vectornator:setting value="false" key="WDDisplayWhiteBackground"/>
</metadata>
<defs/>
<g id="Untitled" vectornator:layerName="Untitled">
<path d="M19.3764+9.78586C21.5412+7.54338+21.5412+3.90213+19.3764+1.68186C17.2115-0.560619+13.6964-0.560619+11.5315+1.68186L10.4812+2.792L9.43098+1.70406C7.26614-0.560619+3.75096-0.560619+1.60755+1.68186C0.557285+2.76979+0+4.21297+0+5.74496C0+7.27695+0.578719+8.72013+1.60755+9.80806L10.4812+19L19.3764+9.78586ZM1.37178+5.74496C1.37178+4.59042+1.80046+3.52469+2.59352+2.72539C3.40801+1.88168+4.45828+1.45983+5.50855+1.45983C6.55882+1.45983+7.60909+1.88168+8.42358+2.72539L10.4812+4.83465L12.5389+2.70318C14.1465+1.03798+16.7829+1.03798+18.369+2.70318C19.1406+3.50248+19.5907+4.56821+19.5907+5.72276C19.5907+6.8773+19.162+7.94303+18.369+8.74233L10.4812+16.9351L2.59352+8.76453C1.82189+7.94303+1.37178+6.8773+1.37178+5.74496Z" opacity="1" fill="#000000"/>
</g>
</svg>
